<svg width="181" height="250" viewBox="0 0 181 250" fill="none" xmlns="http://www.w3.org/2000/svg">
<path d="M180.537 158.145C180.537 214.028 140.949 249.5 90.4832 249.5C40.0174 249.5 0.42981 211.734 0.42981 158.145C0.42981 81.4499 50.7626 0.5 90.4832 0.5C132.532 0.5 180.537 82.9792 180.537 158.145Z" fill="url(#paint0_radial_49_1516)"/>
<path style="mix-blend-mode:screen" opacity="0.57" d="M166.664 85.539C166.664 85.0736 166.664 84.6414 166.664 84.176C149.332 37.3015 118.561 0.5 90.4833 0.5C71.2883 0.5 49.6649 19.3828 32.3994 47.5075C32.2996 47.9397 32.1665 48.4716 32.1 48.5048C36.5245 44.9809 41.082 41.4903 46.2716 39.2961C51.4945 37.1352 57.5824 36.4039 62.772 38.598C70.8558 41.9889 74.7148 51.0314 77.5425 59.3092C83.8965 77.8596 89.0528 96.8088 92.945 116.024C96.0388 131.283 98.5006 147.074 106.451 160.438C109.312 165.259 113.238 169.913 118.66 171.309C125.314 173.005 132.167 169.248 137.423 164.793C148.567 155.385 156.318 142.42 160.876 128.59C165.433 114.761 166.864 100.067 166.698 85.5057L166.664 85.539Z" fill="url(#paint1_radial_49_1516)"/>
<path style="mix-blend-mode:screen" opacity="0.57" d="M34.4949 86.503C25.646 84.1094 17.2294 89.628 11.0751 95.4457C10.8755 95.6452 10.6759 95.8446 10.4763 96.0441C4.18884 115.924 0.429688 137.201 0.429688 158.178C0.429688 196.542 20.6892 226.761 50.7292 240.89C54.1889 239.128 57.3825 236.967 60.1437 234.274C69.5249 225.132 72.4524 211.236 73.0845 198.171C74.5815 166.256 65.0672 134.707 51.7272 105.685C48.0013 97.6066 43.0445 88.8633 34.4617 86.5362L34.4949 86.503Z" fill="url(#paint2_radial_49_1516)"/>
<path style="mix-blend-mode:screen" opacity="0.57" d="M145.374 187.267C132.233 197.307 116.232 204.554 107.217 218.383C106.485 219.514 105.786 220.677 105.154 221.874C100.829 230.052 98.4674 240.025 98.6337 249.4C145.174 245.777 180.537 211.203 180.537 158.377C180.537 152.127 180.204 145.811 179.572 139.495C173.151 158.278 161.175 175.199 145.374 187.3V187.267Z" fill="url(#paint3_radial_49_1516)"/>
<path d="M45.8054 56.1853C42.4788 52.2625 37.1228 54.5563 34.5945 57.9805C31.6005 62.0031 29.8041 67.5549 30.2033 72.608C30.5027 76.5973 33.4302 81.0853 38.021 79.9218C40.3164 79.3566 42.1793 77.3619 43.5766 75.0016C44.6411 73.4724 45.4728 71.7769 46.0383 70.3474C47.6018 66.3913 48.7995 59.7425 45.7722 56.1853H45.8054Z" fill="url(#paint4_radial_49_1516)"/>
<path d="M58.8465 52.3602C56.0188 51.0969 53.1579 53.0583 52.0933 55.6514C51.3947 57.3801 51.1619 59.7737 51.9935 61.5356C52.2597 62.3003 52.6921 63.0649 53.2577 63.6965C54.0228 64.5941 55.786 64.9598 56.8172 64.2617C58.7134 62.9984 60.277 61.4027 60.9423 59.1753C61.7075 56.7152 61.5411 53.5238 58.8465 52.327V52.3602Z" fill="url(#paint5_radial_49_1516)"/>
<path d="M158.414 101.231C153.191 102.959 152.193 109.941 152.692 114.562C152.958 117.088 153.457 120.346 154.688 123.072C154.821 123.371 154.954 123.671 155.087 123.936C155.287 124.335 155.52 124.668 155.786 125C156.617 126.23 157.649 127.228 158.979 127.859C160.975 128.79 162.805 128.657 164.335 127.859C165.367 127.494 166.365 126.829 167.196 125.898C172.452 119.914 169.492 97.6069 158.447 101.264L158.414 101.231Z" fill="url(#paint6_radial_49_1516)"/>
<path d="M156.019 132.381C151.561 134.509 151.761 140.958 153.424 145.014C153.823 146.576 154.622 147.973 155.786 148.737C160.809 152.128 164.202 145.38 164.568 141.357C165.001 136.869 161.674 129.655 156.052 132.348L156.019 132.381Z" fill="url(#paint7_radial_49_1516)"/>
<path d="M170.856 133.842C170.856 133.842 170.723 133.543 170.657 133.41C170.623 133.277 170.557 133.144 170.523 133.011C170.291 132.612 169.858 132.213 169.426 132.114C168.96 131.981 168.394 131.981 167.962 132.247C167.662 132.446 167.43 132.679 167.263 132.978C167.097 133.178 166.931 133.443 166.864 133.709C166.798 133.909 166.764 134.208 166.731 134.441C166.731 134.64 166.698 134.84 166.664 135.072C166.598 135.604 166.897 136.236 167.23 136.602C167.596 136.967 168.162 137.267 168.694 137.267C169.858 137.267 170.856 136.435 170.923 135.239C170.923 135.039 170.923 134.84 170.923 134.607C170.923 134.341 170.923 134.075 170.889 133.842H170.856Z" fill="url(#paint8_radial_49_1516)"/>
<path d="M90.0838 164.361C81.9002 162.234 76.2115 170.578 76.7438 177.892C77.2095 184.374 81.4012 194.979 89.3519 194.481C93.2774 194.248 96.3047 191.788 97.8683 188.264C98.6334 186.535 99.0659 184.674 99.2655 182.812C99.4651 180.817 99.6314 178.59 99.3653 176.595C98.7997 172.506 97.0366 168.317 93.5436 165.957C92.479 165.226 91.3147 164.694 90.0838 164.395V164.361Z" fill="url(#paint9_radial_49_1516)"/>
<path d="M111.874 151.596C101.927 149.303 98.2677 164.861 102.093 171.443C104.289 175.2 108.913 177.128 112.938 174.967C115.733 173.471 118.128 169.748 118.926 166.656C120.39 161.005 118.228 153.059 111.874 151.596Z" fill="url(#paint10_radial_49_1516)"/>
<path d="M48.4672 148.903C48.068 146.942 46.0388 145.878 44.1425 146.211C41.2151 146.743 39.2856 149.336 38.8531 152.161C38.4872 154.555 38.7533 157.547 40.583 159.209C40.9157 159.741 41.3481 160.24 41.8139 160.639C42.7786 161.47 44.2756 162.002 45.4732 161.237C47.3362 160.007 48.6336 158.312 49.0993 156.117C49.6316 153.624 48.9662 151.363 48.4672 148.937V148.903Z" fill="url(#paint11_radial_49_1516)"/>
<path d="M115.865 30.4863C115.865 28.9571 115.632 27.4611 115.333 26.1646C114.268 21.7763 110.177 17.9532 105.386 18.8841C100.862 19.7817 98.5997 24.7018 99.265 28.9239C99.8971 32.9464 103.024 37.8001 107.149 38.8639C111.807 40.0939 115.732 36.3041 115.898 31.7829C115.898 31.3507 115.898 30.9185 115.898 30.4863H115.865Z" fill="url(#paint12_radial_49_1516)"/>
<path d="M128.806 37.4337C128.574 35.439 127.343 33.4111 125.646 32.3473C123.816 31.217 120.889 32.0481 120.357 34.3087C119.725 36.935 119.858 39.528 120.922 42.0214C121.987 44.4815 125.413 44.3152 126.91 42.4868C128.474 41.4562 129.039 39.2953 128.806 37.4004V37.4337Z" fill="url(#paint13_radial_49_1516)"/>
<path d="M154.222 201.063C150.995 197.938 146.238 198.337 143.177 201.462C140.416 204.254 138.919 208.676 139.052 212.565C139.252 217.319 143.477 220.444 147.768 218.35C155.02 216.655 160.177 206.881 154.222 201.063Z" fill="url(#paint14_radial_49_1516)"/>
<path d="M39.3521 164.627C39.086 163.497 38.587 162.267 37.3894 161.868C35.8591 161.369 34.2623 162.367 33.9629 163.929C33.597 166.123 33.9962 168.65 36.4247 169.415C37.3229 169.714 38.3209 169.381 38.9197 168.65C39.2523 168.218 39.4852 167.619 39.4852 167.021C39.6183 166.223 39.5185 165.359 39.3521 164.627Z" fill="url(#paint15_radial_49_1516)"/>
<path d="M23.7163 114.262C23.3504 111.469 22.0197 108.577 18.9924 107.946C15.7323 107.247 13.6365 109.741 12.3723 112.367C10.9751 115.259 9.91058 121.709 12.0397 125.033C12.7715 126.729 14.1022 127.925 16.1648 127.992C22.4522 128.258 24.3151 118.883 23.7163 114.262Z" fill="url(#paint16_radial_49_1516)"/>
<path d="M31.1019 106.881C30.7693 105.85 30.1705 105.052 29.0726 104.72C28.1079 104.421 26.877 104.653 26.1452 105.385C24.5816 107.014 23.883 109.607 25.1139 111.668C25.5131 112.366 26.1452 112.798 26.8438 113.031C27.5091 113.363 28.374 113.463 28.9728 113.031C29.0394 112.998 29.0726 112.964 29.1059 112.898C29.738 112.599 30.3035 112.067 30.6029 111.335C30.8025 111.003 30.9689 110.67 31.0687 110.238C31.3015 109.208 31.4346 107.911 31.0687 106.881H31.1019Z" fill="url(#paint17_radial_49_1516)"/>
<path d="M34.8942 198.437C33.1643 193.284 29.6048 186.702 24.3819 184.375C19.0259 181.981 14.7012 186.37 14.668 191.655C14.668 194.747 15.5329 197.972 16.8636 200.964C17.3626 203.923 18.8929 206.748 20.8889 209.175C23.8496 212.766 29.6048 217.187 34.1956 213.53C38.2874 210.272 36.2914 202.526 34.8942 198.404V198.437Z" fill="url(#paint18_radial_49_1516)"/>
<path d="M48.7002 204.254C48.3675 203.855 48.0016 203.457 47.6356 203.091C46.9038 202.359 46.1386 201.628 45.1406 201.329C43.0781 200.731 40.9157 201.861 40.1838 203.889C38.6868 208.21 40.7494 213.363 43.7434 216.522C45.7061 218.583 48.8665 218.084 50.43 215.857C53.0249 212.167 51.295 207.479 48.6669 204.254H48.7002Z" fill="url(#paint19_radial_49_1516)"/>
<path d="M110.277 57.082C109.445 57.082 108.613 57.215 107.815 57.5474C104.987 58.6778 102.792 61.1711 101.561 63.9636C99.0324 69.6151 99.1322 76.2308 100.995 82.0485C101.295 82.9461 101.627 83.8105 102.026 84.6416C104.089 89.1296 107.582 92.9859 112.007 95.2798C113.271 95.9114 114.635 96.4433 116.032 96.3768C119.259 96.1774 121.354 92.9194 122.352 89.8609C124.315 83.7772 123.949 77.1284 122.519 70.8784C121.654 67.1551 120.356 63.3652 117.728 60.5727C115.899 58.6445 113.071 57.082 110.31 57.082H110.277Z" fill="url(#paint20_radial_49_1516)"/>
<path d="M140.583 114.794C140.118 112.334 139.253 109.641 137.124 108.179C136.758 107.913 136.358 107.613 135.959 107.414C134.429 106.616 132.2 107.048 130.67 107.58C129.406 108.012 128.408 109.475 127.776 110.639C127.077 111.902 126.645 113.298 126.378 114.728C126.279 115.293 126.212 115.858 126.179 116.456C125.979 119.714 126.811 123.537 128.94 126.097C129.705 126.995 131.269 127.76 132.4 128.059C133.897 128.424 135.527 128.225 136.824 127.361C138.055 126.563 138.887 125.299 139.519 123.97C140.816 121.177 141.182 117.952 140.617 114.927C140.617 114.927 140.617 114.861 140.617 114.827L140.583 114.794Z" fill="url(#paint21_radial_49_1516)"/>
<path d="M83.8298 14.7285C83.2975 13.0331 82.233 11.5038 80.6362 10.706C79.2722 10.0079 77.6421 9.90812 76.1119 10.0079C67.8284 10.6063 60.9422 16.8562 56.3846 23.8042C55.4864 25.1673 54.6548 26.6633 54.3553 28.2922C53.8563 31.0183 55.7526 34.1432 58.3806 35.0408C59.545 35.4398 60.9089 35.8719 62.1065 36.1046C63.7699 36.3706 65.4998 36.1047 67.0966 35.606C73.0513 33.7111 78.3075 29.6885 81.6674 24.4359C83.0646 22.2418 84.1624 19.7817 84.1957 17.1886C84.1957 16.3575 84.0959 15.5264 83.8298 14.7285Z" fill="url(#paint22_radial_49_1516)"/>
<path d="M125.313 228.556C120.922 223.802 112.106 224.866 106.418 225.963C100.596 227.06 94.2752 229.187 91.381 234.772C89.0523 239.294 90.6159 243.084 94.3085 244.546C96.2712 245.71 98.7995 246.275 101.028 246.308C107.649 246.375 114.435 244.613 120.323 241.621C125.313 239.094 130.27 233.941 125.28 228.523L125.313 228.556Z" fill="url(#paint23_radial_49_1516)"/>
<path style="mix-blend-mode:multiply" opacity="0.64" d="M135.66 28.3584C143.278 41.224 149.432 54.9206 153.99 68.9497C163.571 98.5372 165.933 132.214 154.655 161.701C149.366 175.564 141.548 189.76 130.337 199.733C121.655 207.446 111.342 212.864 100.364 216.555C78.1748 224.001 52.4928 224.167 30.9026 214.759C21.5546 210.704 13.9365 204.587 8.28113 197.073C22.2199 229.121 53.4242 249.5 90.5168 249.5C141.016 249.5 180.57 214.028 180.57 158.144C180.57 110.006 160.876 58.9099 135.693 28.3584H135.66Z" fill="url(#paint24_radial_49_1516)"/>
<path style="mix-blend-mode:screen" opacity="0.69" d="M104.022 140.823C106.318 135.637 108.314 130.285 110.177 124.899C112.372 118.45 114.768 112.1 116.497 105.485C117.895 100.066 118.959 94.5474 119.625 88.9623C120.323 83.4105 120.656 77.7922 120.623 72.2072C120.623 70.3787 120.822 68.3176 120.356 66.5224C119.957 64.9932 119.791 63.6301 119.658 62.0012C119.325 57.9454 118.627 53.9228 117.928 49.9335C117.462 47.3404 116.797 44.7474 115.965 42.254C114.302 37.2674 111.873 32.5467 108.746 28.3579C105.087 23.471 100.363 19.249 94.6079 17.0216C85.393 13.4644 74.7808 14.6612 65.7988 18.7835C56.8167 22.9058 49.2984 29.6877 42.8779 37.1676C41.514 38.7634 40.1833 40.3923 38.8859 42.0878C36.2911 45.4787 33.8293 48.9361 31.6005 52.5598C30.7688 53.9228 29.671 54.9201 28.9391 56.3829C28.0077 58.311 27.0096 60.2392 26.0116 62.1341C25.2798 63.4972 24.4814 64.7937 23.7495 66.1567C23.0509 67.42 22.685 68.8162 21.9864 70.1128C20.5891 72.7391 19.5579 75.3986 18.4268 78.1247C16.3643 83.1113 14.7009 88.2642 13.3702 93.5168C10.7422 104.022 9.54455 114.893 9.74415 125.731C9.87722 133.111 10.6091 140.491 11.9398 147.738C13.6031 156.747 16.331 165.923 22.319 172.871C31.168 183.143 46.2379 186.8 59.4781 183.808C72.7183 180.816 84.0956 172.007 92.2792 161.202C97.0364 154.919 100.829 148.004 104.022 140.79V140.823Z" fill="url(#paint25_radial_49_1516)"/>
<path style="mix-blend-mode:screen" opacity="0.57" d="M55.6194 101.031C56.1849 100.5 56.7172 99.9344 57.2495 99.4025C70.0572 86.3043 80.1371 70.5132 86.6241 53.3591C88.5869 48.173 90.2502 42.7874 90.3833 37.2356C90.5163 31.6838 89.0193 25.9326 85.2934 21.8103C80.1371 16.0922 72.4192 15.7265 65.7658 18.785C56.7837 22.9073 49.2654 29.6892 42.8449 37.1691C37.3226 43.5853 32.5322 50.6331 28.5402 58.1131C21.7205 70.8456 17.1962 84.7085 17.7285 99.3028C17.7285 99.3693 17.7285 99.4025 17.7285 99.469C17.8948 104.09 18.7597 109.143 22.3193 112.069C25.6792 114.861 30.5362 114.961 34.7611 113.964C42.8117 112.069 49.6314 106.882 55.5861 101.065L55.6194 101.031Z" fill="url(#paint26_radial_49_1516)"/>
<path style="mix-blend-mode:multiply" opacity="0.4" d="M66.4315 243.017C66.4315 243.017 113.903 256.182 146.704 227.858C179.506 199.534 177.776 153.856 177.776 153.856C177.776 153.856 171.821 242.751 66.4648 243.017H66.4315Z" fill="url(#paint27_radial_49_1516)"/>
<path style="mix-blend-mode:screen" d="M51.0948 104.954C78.174 89.4952 109.345 79.4886 140.35 82.5804C147.569 83.3117 166.298 86.9354 166.198 75.0006C166.165 71.6762 164.535 68.5845 162.971 65.6257C159.445 69.3159 153.956 70.4129 148.866 69.9808C143.81 69.5153 138.953 67.7534 134.029 66.4236C121.587 63.0992 108.347 62.8997 95.8055 65.792C71.3211 71.4103 49.7974 88.5311 24.7142 89.7611C21.4208 89.9274 17.8945 89.7279 15.2664 87.7665C12.6384 85.8051 11.5738 81.4833 13.9358 79.1894C10.2764 84.1096 7.11605 89.5617 5.78538 95.5789C4.98698 99.2025 4.92044 102.992 5.78538 106.583C6.88319 111.303 9.21186 114.495 14.0023 116.224C25.4128 120.346 37.8214 112.7 47.3357 107.181C48.5998 106.45 49.864 105.718 51.1614 104.987L51.0948 104.954Z" fill="url(#paint28_radial_49_1516)"/>
<path style="mix-blend-mode:screen" d="M90.4832 5.95207C132 5.95207 179.306 86.3369 180.503 160.738C180.503 159.873 180.503 159.042 180.503 158.178C180.537 82.9792 132.532 0.5 90.4832 0.5C50.7626 0.5 0.42981 81.4499 0.42981 158.145C0.42981 158.976 0.42981 159.84 0.42981 160.671C1.72722 84.8409 51.2616 5.95207 90.4832 5.95207Z" fill="url(#paint29_radial_49_1516)"/>
<path style="mix-blend-mode:screen" opacity="0.74" d="M89.7843 96.975C91.2481 93.6838 92.5122 90.2929 93.6765 86.8687C95.0738 82.7796 96.604 78.7571 97.6686 74.5683C98.5668 71.1109 99.2321 67.6202 99.6646 64.0963C100.097 60.5724 100.33 57.0153 100.297 53.4914C100.297 52.3278 100.43 51.0313 100.13 49.901C99.8642 48.9369 99.7644 48.0726 99.6978 47.042C99.4982 44.4822 99.0658 41.9224 98.6 39.3958C98.3006 37.7336 97.9014 36.1046 97.3692 34.5421C96.3046 31.3839 94.7743 28.3919 92.7783 25.7324C90.4497 22.6407 87.4556 19.9479 83.8296 18.5516C77.9746 16.291 71.2547 17.0556 65.5661 19.6819C59.8774 22.275 55.1203 26.5967 51.0284 31.3174C50.1635 32.3148 49.3318 33.3786 48.5002 34.4424C46.8701 36.6033 45.3065 38.7642 43.8761 41.0913C43.3438 41.9556 42.6452 42.5873 42.1795 43.5181C41.5807 44.7481 40.9819 45.9782 40.3165 47.175C39.8508 48.0393 39.3518 48.8704 38.886 49.7348C38.4536 50.5327 38.2207 51.4302 37.755 52.2614C36.8568 53.9236 36.2247 55.5858 35.4928 57.3145C34.1954 60.4727 33.1309 63.7307 32.2992 67.0551C30.6359 73.704 29.8707 80.6188 30.0038 87.4671C30.0703 92.1545 30.5361 96.8088 31.401 101.43C32.4655 107.148 34.1954 112.932 37.9878 117.354C43.6099 123.87 53.1575 126.163 61.5408 124.269C69.924 122.374 77.1429 116.789 82.3325 109.94C85.3598 105.951 87.755 101.596 89.7843 97.0082V96.975Z" fill="url(#paint30_radial_49_1516)"/>
<defs>
<radialGradient id="paint0_radial_49_1516" cx="0" cy="0" r="1" gradientUnits="userSpaceOnUse" gradientTransform="translate(91.215 48.3053) scale(200 199.865)">
<stop stop-color="#F08829"/>
<stop offset="0.2" stop-color="#DC6C22"/>
<stop offset="0.75" stop-color="#A92512"/>
<stop offset="1" stop-color="#95090C"/>
</radialGradient>
<radialGradient id="paint1_radial_49_1516" cx="0" cy="0" r="1" gradientUnits="userSpaceOnUse" gradientTransform="translate(99.7315 27.2284) scale(122.522 122.439)">
<stop stop-color="#F07544"/>
<stop offset="0.62" stop-color="#C03F30"/>
<stop offset="1" stop-color="#A82327"/>
</radialGradient>
<radialGradient id="paint2_radial_49_1516" cx="0" cy="0" r="1" gradientUnits="userSpaceOnUse" gradientTransform="translate(53.9893 69.1827) scale(162.608 162.498)">
<stop stop-color="#F07544"/>
<stop offset="0.62" stop-color="#C03F30"/>
<stop offset="1" stop-color="#A82327"/>
</radialGradient>
<radialGradient id="paint3_radial_49_1516" cx="0" cy="0" r="1" gradientUnits="userSpaceOnUse" gradientTransform="translate(61.9404 75.4661) scale(247.871 247.703)">
<stop stop-color="#F07544"/>
<stop offset="0.62" stop-color="#C03F30"/>
<stop offset="1" stop-color="#A82327"/>
</radialGradient>
<radialGradient id="paint4_radial_49_1516" cx="0" cy="0" r="1" gradientUnits="userSpaceOnUse" gradientTransform="translate(60.9419 54.4234) scale(213.207 213.063)">
<stop stop-color="#EDB827"/>
<stop offset="0.45" stop-color="#EE9B33"/>
<stop offset="1" stop-color="#F07544"/>
</radialGradient>
<radialGradient id="paint5_radial_49_1516" cx="0" cy="0" r="1" gradientUnits="userSpaceOnUse" gradientTransform="translate(60.9423 54.4213) scale(213.174 213.03)">
<stop stop-color="#EDB827"/>
<stop offset="0.45" stop-color="#EE9B33"/>
<stop offset="1" stop-color="#F07544"/>
</radialGradient>
<radialGradient id="paint6_radial_49_1516" cx="0" cy="0" r="1" gradientUnits="userSpaceOnUse" gradientTransform="translate(60.9419 54.4226) scale(213.207 213.063)">
<stop stop-color="#EDB827"/>
<stop offset="0.45" stop-color="#EE9B33"/>
<stop offset="1" stop-color="#F07544"/>
</radialGradient>
<radialGradient id="paint7_radial_49_1516" cx="0" cy="0" r="1" gradientUnits="userSpaceOnUse" gradientTransform="translate(60.9422 54.4232) scale(213.207 213.063)">
<stop stop-color="#EDB827"/>
<stop offset="0.45" stop-color="#EE9B33"/>
<stop offset="1" stop-color="#F07544"/>
</radialGradient>
<radialGradient id="paint8_radial_49_1516" cx="0" cy="0" r="1" gradientUnits="userSpaceOnUse" gradientTransform="translate(60.9758 54.4218) scale(213.174 213.03)">
<stop stop-color="#EDB827"/>
<stop offset="0.45" stop-color="#EE9B33"/>
<stop offset="1" stop-color="#F07544"/>
</radialGradient>
<radialGradient id="paint9_radial_49_1516" cx="0" cy="0" r="1" gradientUnits="userSpaceOnUse" gradientTransform="translate(60.9421 54.4224) scale(213.207 213.063)">
<stop stop-color="#EDB827"/>
<stop offset="0.45" stop-color="#EE9B33"/>
<stop offset="1" stop-color="#F07544"/>
</radialGradient>
<radialGradient id="paint10_radial_49_1516" cx="0" cy="0" r="1" gradientUnits="userSpaceOnUse" gradientTransform="translate(59.9775 54.4233) scale(214.172 214.027)">
<stop stop-color="#EDB827"/>
<stop offset="0.45" stop-color="#EE9B33"/>
<stop offset="1" stop-color="#F07544"/>
</radialGradient>
<radialGradient id="paint11_radial_49_1516" cx="0" cy="0" r="1" gradientUnits="userSpaceOnUse" gradientTransform="translate(60.9423 54.4231) scale(213.174 213.03)">
<stop stop-color="#EDB827"/>
<stop offset="0.45" stop-color="#EE9B33"/>
<stop offset="1" stop-color="#F07544"/>
</radialGradient>
<radialGradient id="paint12_radial_49_1516" cx="0" cy="0" r="1" gradientUnits="userSpaceOnUse" gradientTransform="translate(60.9416 54.4223) scale(213.207 213.063)">
<stop stop-color="#EDB827"/>
<stop offset="0.45" stop-color="#EE9B33"/>
<stop offset="1" stop-color="#F07544"/>
</radialGradient>
<radialGradient id="paint13_radial_49_1516" cx="0" cy="0" r="1" gradientUnits="userSpaceOnUse" gradientTransform="translate(60.9421 54.4215) scale(213.207 213.063)">
<stop stop-color="#EDB827"/>
<stop offset="0.45" stop-color="#EE9B33"/>
<stop offset="1" stop-color="#F07544"/>
</radialGradient>
<radialGradient id="paint14_radial_49_1516" cx="0" cy="0" r="1" gradientUnits="userSpaceOnUse" gradientTransform="translate(60.9418 54.4223) scale(213.207 213.063)">
<stop stop-color="#EDB827"/>
<stop offset="0.45" stop-color="#EE9B33"/>
<stop offset="1" stop-color="#F07544"/>
</radialGradient>
<radialGradient id="paint15_radial_49_1516" cx="0" cy="0" r="1" gradientUnits="userSpaceOnUse" gradientTransform="translate(60.9423 54.4224) scale(213.207 213.063)">
<stop stop-color="#EDB827"/>
<stop offset="0.45" stop-color="#EE9B33"/>
<stop offset="1" stop-color="#F07544"/>
</radialGradient>
<radialGradient id="paint16_radial_49_1516" cx="0" cy="0" r="1" gradientUnits="userSpaceOnUse" gradientTransform="translate(60.9419 54.4222) scale(213.207 213.063)">
<stop stop-color="#EDB827"/>
<stop offset="0.45" stop-color="#EE9B33"/>
<stop offset="1" stop-color="#F07544"/>
</radialGradient>
<radialGradient id="paint17_radial_49_1516" cx="0" cy="0" r="1" gradientUnits="userSpaceOnUse" gradientTransform="translate(60.9756 54.4211) scale(213.207 213.063)">
<stop stop-color="#EDB827"/>
<stop offset="0.45" stop-color="#EE9B33"/>
<stop offset="1" stop-color="#F07544"/>
</radialGradient>
<radialGradient id="paint18_radial_49_1516" cx="0" cy="0" r="1" gradientUnits="userSpaceOnUse" gradientTransform="translate(60.9421 54.4228) scale(213.207 213.063)">
<stop stop-color="#EDB827"/>
<stop offset="0.45" stop-color="#EE9B33"/>
<stop offset="1" stop-color="#F07544"/>
</radialGradient>
<radialGradient id="paint19_radial_49_1516" cx="0" cy="0" r="1" gradientUnits="userSpaceOnUse" gradientTransform="translate(61.0089 54.4554) scale(213.174 213.03)">
<stop stop-color="#EDB827"/>
<stop offset="0.45" stop-color="#EE9B33"/>
<stop offset="1" stop-color="#F07544"/>
</radialGradient>
<radialGradient id="paint20_radial_49_1516" cx="0" cy="0" r="1" gradientUnits="userSpaceOnUse" gradientTransform="translate(58.8303 54.9363) rotate(-10.1732) scale(188.054 187.934)">
<stop stop-color="#EDB827"/>
<stop offset="0.45" stop-color="#EE9B33"/>
<stop offset="1" stop-color="#F07544"/>
</radialGradient>
<radialGradient id="paint21_radial_49_1516" cx="0" cy="0" r="1" gradientUnits="userSpaceOnUse" gradientTransform="translate(51.3616 51.3641) scale(235.729 235.569)">
<stop stop-color="#EDB827"/>
<stop offset="0.45" stop-color="#EE9B33"/>
<stop offset="1" stop-color="#F07544"/>
</radialGradient>
<radialGradient id="paint22_radial_49_1516" cx="0" cy="0" r="1" gradientUnits="userSpaceOnUse" gradientTransform="translate(60.7426 55.2201) scale(213.44 213.296)">
<stop stop-color="#EDB827"/>
<stop offset="0.45" stop-color="#EE9B33"/>
<stop offset="1" stop-color="#F07544"/>
</radialGradient>
<radialGradient id="paint23_radial_49_1516" cx="0" cy="0" r="1" gradientUnits="userSpaceOnUse" gradientTransform="translate(60.9419 54.4219) scale(213.207 213.063)">
<stop stop-color="#EDB827"/>
<stop offset="0.45" stop-color="#EE9B33"/>
<stop offset="1" stop-color="#F07544"/>
</radialGradient>
<radialGradient id="paint24_radial_49_1516" cx="0" cy="0" r="1" gradientUnits="userSpaceOnUse" gradientTransform="translate(78.4742 75.1664) scale(155.955 155.849)">
<stop stop-color="#F07544"/>
<stop offset="0.62" stop-color="#C03F30"/>
<stop offset="1" stop-color="#A82327"/>
</radialGradient>
<radialGradient id="paint25_radial_49_1516" cx="0" cy="0" r="1" gradientUnits="userSpaceOnUse" gradientTransform="translate(55.2532 27.4603) scale(150.666 150.564)">
<stop stop-color="#F07544"/>
<stop offset="0.62" stop-color="#C03F30"/>
<stop offset="1" stop-color="#A82327"/>
</radialGradient>
<radialGradient id="paint26_radial_49_1516" cx="0" cy="0" r="1" gradientUnits="userSpaceOnUse" gradientTransform="translate(47.5688 24.1041) scale(88.4566 88.3967)">
<stop stop-color="#F07544"/>
<stop offset="0.62" stop-color="#C03F30"/>
<stop offset="1" stop-color="#A82327"/>
</radialGradient>
<radialGradient id="paint27_radial_49_1516" cx="0" cy="0" r="1" gradientUnits="userSpaceOnUse" gradientTransform="translate(112.14 160.671) scale(95.2097 95.1453)">
<stop stop-color="#F07544"/>
<stop offset="0.62" stop-color="#C03F30"/>
<stop offset="1" stop-color="#A82327"/>
</radialGradient>
<radialGradient id="paint28_radial_49_1516" cx="0" cy="0" r="1" gradientUnits="userSpaceOnUse" gradientTransform="translate(85.6591 90.559) scale(60.0134 59.9728)">
<stop stop-color="#FF544D"/>
<stop offset="0.2" stop-color="#FF5746"/>
<stop offset="0.49" stop-color="#FF6133"/>
<stop offset="0.82" stop-color="#FF7015"/>
<stop offset="0.99" stop-color="#FF7A04"/>
</radialGradient>
<radialGradient id="paint29_radial_49_1516" cx="0" cy="0" r="1" gradientUnits="userSpaceOnUse" gradientTransform="translate(78.4738 48.5381) scale(117.066 116.987)">
<stop stop-color="#FF544D"/>
<stop offset="0.2" stop-color="#FF5746"/>
<stop offset="0.49" stop-color="#FF6133"/>
<stop offset="0.82" stop-color="#FF7015"/>
<stop offset="0.99" stop-color="#FF7A04"/>
</radialGradient>
<radialGradient id="paint30_radial_49_1516" cx="0" cy="0" r="1" gradientUnits="userSpaceOnUse" gradientTransform="translate(58.8794 25.1672) scale(95.4426 95.378)">
<stop stop-color="#F07544"/>
<stop offset="0.62" stop-color="#C03F30"/>
<stop offset="1" stop-color="#A82327"/>
</radialGradient>
</defs>
</svg>
